<svg xmlns="http://www.w3.org/2000/svg" xmlns:xlink="http://www.w3.org/1999/xlink" width="500" zoomAndPan="magnify" viewBox="0 0 375 374.999991" height="500" preserveAspectRatio="xMidYMid meet" version="1.0"><defs><g/></defs><rect x="-37.5" width="450" fill="#ffffff" y="-37.499999" height="449.999989" fill-opacity="1"/><rect x="-37.5" width="450" fill="#ffffff" y="-37.499999" height="449.999989" fill-opacity="1"/><rect x="-37.5" width="450" fill="#ffffff" y="-37.499999" height="449.999989" fill-opacity="1"/><g fill="#57b133" fill-opacity="1"><g transform="translate(36.290623, 202.193747)"><g><path d="M 67.453125 -54.09375 L 67.453125 0 L 52.40625 0 L 52.40625 -29.84375 L 42.203125 0 L 29.625 0 L 19.34375 -30.078125 L 19.34375 0 L 4.296875 0 L 4.296875 -54.09375 L 22.484375 -54.09375 L 36.0625 -18.953125 L 49.34375 -54.09375 Z M 67.453125 -54.09375 "/></g></g></g><g fill="#000000" fill-opacity="1"><g transform="translate(108.032806, 202.193747)"><g><path d="M 37.515625 -32.84375 L 37.515625 -20.328125 L 2.765625 -20.328125 L 2.765625 -32.84375 Z M 37.515625 -32.84375 "/></g></g></g><g fill="#000000" fill-opacity="1"><g transform="translate(152.385297, 202.193747)"><g><path d="M 29.703125 -12.8125 L 29.703125 0 L 23.171875 0 C 12.171875 0 6.671875 -5.445312 6.671875 -16.34375 L 6.671875 -30.546875 L 1.375 -30.546875 L 1.375 -43.046875 L 6.671875 -43.046875 L 6.671875 -53.484375 L 21.796875 -53.484375 L 21.796875 -43.046875 L 29.625 -43.046875 L 29.625 -30.546875 L 21.796875 -30.546875 L 21.796875 -16.109375 C 21.796875 -14.929688 22.0625 -14.085938 22.59375 -13.578125 C 23.132812 -13.066406 24.046875 -12.8125 25.328125 -12.8125 Z M 29.703125 -12.8125 "/></g></g></g><g fill="#000000" fill-opacity="1"><g transform="translate(184.690489, 202.193747)"><g><path d="M 1.84375 -21.5625 C 1.84375 -26.007812 2.644531 -29.894531 4.25 -33.21875 C 5.863281 -36.550781 8.066406 -39.109375 10.859375 -40.890625 C 13.648438 -42.679688 16.757812 -43.578125 20.1875 -43.578125 C 23.144531 -43.578125 25.695312 -42.988281 27.84375 -41.8125 C 30 -40.644531 31.664062 -39.0625 32.84375 -37.0625 L 32.84375 -43.046875 L 47.875 -43.046875 L 47.875 0 L 32.84375 0 L 32.84375 -5.984375 C 31.664062 -3.992188 29.988281 -2.410156 27.8125 -1.234375 C 25.644531 -0.0546875 23.101562 0.53125 20.1875 0.53125 C 16.757812 0.53125 13.648438 -0.359375 10.859375 -2.140625 C 8.066406 -3.929688 5.863281 -6.503906 4.25 -9.859375 C 2.644531 -13.210938 1.84375 -17.113281 1.84375 -21.5625 Z M 32.84375 -21.5625 C 32.84375 -24.320312 32.085938 -26.492188 30.578125 -28.078125 C 29.066406 -29.671875 27.210938 -30.46875 25.015625 -30.46875 C 22.765625 -30.46875 20.894531 -29.6875 19.40625 -28.125 C 17.925781 -26.5625 17.1875 -24.375 17.1875 -21.5625 C 17.1875 -18.800781 17.925781 -16.613281 19.40625 -15 C 20.894531 -13.382812 22.765625 -12.578125 25.015625 -12.578125 C 27.210938 -12.578125 29.066406 -13.367188 30.578125 -14.953125 C 32.085938 -16.546875 32.84375 -18.75 32.84375 -21.5625 Z M 32.84375 -21.5625 "/></g></g></g><g fill="#000000" fill-opacity="1"><g transform="translate(236.869891, 202.193747)"><g><path d="M 31.234375 0 L 19.34375 -17.65625 L 19.34375 0 L 4.296875 0 L 4.296875 -56.78125 L 19.34375 -56.78125 L 19.34375 -26.171875 L 31.234375 -43.046875 L 49.265625 -43.046875 L 32.3125 -21.40625 L 49.578125 0 Z M 31.234375 0 "/></g></g></g><g fill="#000000" fill-opacity="1"><g transform="translate(286.517059, 202.193747)"><g><path d="M 1.84375 -21.5625 C 1.84375 -26.007812 2.644531 -29.894531 4.25 -33.21875 C 5.863281 -36.550781 8.066406 -39.109375 10.859375 -40.890625 C 13.648438 -42.679688 16.757812 -43.578125 20.1875 -43.578125 C 23.144531 -43.578125 25.695312 -42.988281 27.84375 -41.8125 C 30 -40.644531 31.664062 -39.0625 32.84375 -37.0625 L 32.84375 -43.046875 L 47.875 -43.046875 L 47.875 0 L 32.84375 0 L 32.84375 -5.984375 C 31.664062 -3.992188 29.988281 -2.410156 27.8125 -1.234375 C 25.644531 -0.0546875 23.101562 0.53125 20.1875 0.53125 C 16.757812 0.53125 13.648438 -0.359375 10.859375 -2.140625 C 8.066406 -3.929688 5.863281 -6.503906 4.25 -9.859375 C 2.644531 -13.210938 1.84375 -17.113281 1.84375 -21.5625 Z M 32.84375 -21.5625 C 32.84375 -24.320312 32.085938 -26.492188 30.578125 -28.078125 C 29.066406 -29.671875 27.210938 -30.46875 25.015625 -30.46875 C 22.765625 -30.46875 20.894531 -29.6875 19.40625 -28.125 C 17.925781 -26.5625 17.1875 -24.375 17.1875 -21.5625 C 17.1875 -18.800781 17.925781 -16.613281 19.40625 -15 C 20.894531 -13.382812 22.765625 -12.578125 25.015625 -12.578125 C 27.210938 -12.578125 29.066406 -13.367188 30.578125 -14.953125 C 32.085938 -16.546875 32.84375 -18.75 32.84375 -21.5625 Z M 32.84375 -21.5625 "/></g></g></g><g fill="#000000" fill-opacity="1"><g transform="translate(38.625002, 229.104638)"><g><path d="M 5.046875 -10.953125 L 5.046875 -8.65625 L 9.546875 -8.65625 L 9.546875 -5.6875 L 5.046875 -5.6875 L 5.046875 -3.140625 L 10.140625 -3.140625 L 10.140625 0 L 1.125 0 L 1.125 -14.09375 L 10.140625 -14.09375 L 10.140625 -10.953125 Z M 5.046875 -10.953125 "/></g></g></g><g fill="#000000" fill-opacity="1"><g transform="translate(49.580682, 229.104638)"><g><path d="M 0.484375 -5.625 C 0.484375 -6.78125 0.691406 -7.789062 1.109375 -8.65625 C 1.523438 -9.519531 2.097656 -10.1875 2.828125 -10.65625 C 3.566406 -11.125 4.382812 -11.359375 5.28125 -11.359375 C 6 -11.359375 6.640625 -11.207031 7.203125 -10.90625 C 7.773438 -10.601562 8.222656 -10.195312 8.546875 -9.6875 L 8.546875 -14.796875 L 12.484375 -14.796875 L 12.484375 0 L 8.546875 0 L 8.546875 -1.5625 C 8.234375 -1.039062 7.796875 -0.625 7.234375 -0.3125 C 6.679688 -0.0078125 6.023438 0.140625 5.265625 0.140625 C 4.367188 0.140625 3.554688 -0.09375 2.828125 -0.5625 C 2.097656 -1.03125 1.523438 -1.695312 1.109375 -2.5625 C 0.691406 -3.4375 0.484375 -4.457031 0.484375 -5.625 Z M 8.5625 -5.625 C 8.5625 -6.34375 8.363281 -6.90625 7.96875 -7.3125 C 7.570312 -7.726562 7.085938 -7.9375 6.515625 -7.9375 C 5.929688 -7.9375 5.445312 -7.734375 5.0625 -7.328125 C 4.675781 -6.921875 4.484375 -6.351562 4.484375 -5.625 C 4.484375 -4.90625 4.675781 -4.332031 5.0625 -3.90625 C 5.445312 -3.488281 5.929688 -3.28125 6.515625 -3.28125 C 7.085938 -3.28125 7.570312 -3.484375 7.96875 -3.890625 C 8.363281 -4.304688 8.5625 -4.882812 8.5625 -5.625 Z M 8.5625 -5.625 "/></g></g></g><g fill="#000000" fill-opacity="1"><g transform="translate(63.175324, 229.104638)"><g><path d="M 12.59375 -11.21875 L 12.59375 0 L 8.65625 0 L 8.65625 -1.59375 C 8.320312 -1.09375 7.863281 -0.6875 7.28125 -0.375 C 6.695312 -0.0625 6.023438 0.09375 5.265625 0.09375 C 3.953125 0.09375 2.921875 -0.332031 2.171875 -1.1875 C 1.421875 -2.050781 1.046875 -3.222656 1.046875 -4.703125 L 1.046875 -11.21875 L 4.9375 -11.21875 L 4.9375 -5.203125 C 4.9375 -4.554688 5.101562 -4.050781 5.4375 -3.6875 C 5.78125 -3.320312 6.234375 -3.140625 6.796875 -3.140625 C 7.367188 -3.140625 7.820312 -3.320312 8.15625 -3.6875 C 8.488281 -4.050781 8.65625 -4.554688 8.65625 -5.203125 L 8.65625 -11.21875 Z M 12.59375 -11.21875 "/></g></g></g><g fill="#000000" fill-opacity="1"><g transform="translate(76.889911, 229.104638)"><g><path d="M 0.484375 -5.625 C 0.484375 -6.78125 0.722656 -7.789062 1.203125 -8.65625 C 1.679688 -9.519531 2.347656 -10.1875 3.203125 -10.65625 C 4.066406 -11.125 5.050781 -11.359375 6.15625 -11.359375 C 7.582031 -11.359375 8.78125 -10.96875 9.75 -10.1875 C 10.726562 -9.40625 11.359375 -8.316406 11.640625 -6.921875 L 7.484375 -6.921875 C 7.242188 -7.648438 6.773438 -8.015625 6.078125 -8.015625 C 5.585938 -8.015625 5.195312 -7.8125 4.90625 -7.40625 C 4.625 -7 4.484375 -6.40625 4.484375 -5.625 C 4.484375 -4.832031 4.625 -4.226562 4.90625 -3.8125 C 5.195312 -3.40625 5.585938 -3.203125 6.078125 -3.203125 C 6.785156 -3.203125 7.253906 -3.566406 7.484375 -4.296875 L 11.640625 -4.296875 C 11.359375 -2.910156 10.726562 -1.820312 9.75 -1.03125 C 8.78125 -0.25 7.582031 0.140625 6.15625 0.140625 C 5.050781 0.140625 4.066406 -0.09375 3.203125 -0.5625 C 2.347656 -1.03125 1.679688 -1.695312 1.203125 -2.5625 C 0.722656 -3.425781 0.484375 -4.445312 0.484375 -5.625 Z M 0.484375 -5.625 "/></g></g></g><g fill="#000000" fill-opacity="1"><g transform="translate(89.025122, 229.104638)"><g><path d="M 0.484375 -5.625 C 0.484375 -6.78125 0.691406 -7.789062 1.109375 -8.65625 C 1.523438 -9.519531 2.097656 -10.1875 2.828125 -10.65625 C 3.554688 -11.125 4.367188 -11.359375 5.265625 -11.359375 C 6.035156 -11.359375 6.695312 -11.203125 7.25 -10.890625 C 7.8125 -10.585938 8.25 -10.175781 8.5625 -9.65625 L 8.5625 -11.21875 L 12.484375 -11.21875 L 12.484375 0 L 8.5625 0 L 8.5625 -1.5625 C 8.25 -1.039062 7.8125 -0.625 7.25 -0.3125 C 6.6875 -0.0078125 6.023438 0.140625 5.265625 0.140625 C 4.367188 0.140625 3.554688 -0.09375 2.828125 -0.5625 C 2.097656 -1.03125 1.523438 -1.695312 1.109375 -2.5625 C 0.691406 -3.4375 0.484375 -4.457031 0.484375 -5.625 Z M 8.5625 -5.625 C 8.5625 -6.34375 8.363281 -6.90625 7.96875 -7.3125 C 7.570312 -7.726562 7.085938 -7.9375 6.515625 -7.9375 C 5.929688 -7.9375 5.445312 -7.734375 5.0625 -7.328125 C 4.675781 -6.921875 4.484375 -6.351562 4.484375 -5.625 C 4.484375 -4.90625 4.675781 -4.332031 5.0625 -3.90625 C 5.445312 -3.488281 5.929688 -3.28125 6.515625 -3.28125 C 7.085938 -3.28125 7.570312 -3.484375 7.96875 -3.890625 C 8.363281 -4.304688 8.5625 -4.882812 8.5625 -5.625 Z M 8.5625 -5.625 "/></g></g></g><g fill="#000000" fill-opacity="1"><g transform="translate(102.619764, 229.104638)"><g><path d="M 7.734375 -3.34375 L 7.734375 0 L 6.046875 0 C 3.171875 0 1.734375 -1.421875 1.734375 -4.265625 L 1.734375 -7.953125 L 0.359375 -7.953125 L 0.359375 -11.21875 L 1.734375 -11.21875 L 1.734375 -13.9375 L 5.6875 -13.9375 L 5.6875 -11.21875 L 7.71875 -11.21875 L 7.71875 -7.953125 L 5.6875 -7.953125 L 5.6875 -4.203125 C 5.6875 -3.890625 5.753906 -3.664062 5.890625 -3.53125 C 6.023438 -3.40625 6.257812 -3.34375 6.59375 -3.34375 Z M 7.734375 -3.34375 "/></g></g></g><g fill="#000000" fill-opacity="1"><g transform="translate(111.036447, 229.104638)"><g><path d="M 11.84375 -5.734375 C 11.84375 -5.429688 11.820312 -5.125 11.78125 -4.8125 L 4.359375 -4.8125 C 4.398438 -4.207031 4.566406 -3.753906 4.859375 -3.453125 C 5.160156 -3.148438 5.546875 -3 6.015625 -3 C 6.671875 -3 7.140625 -3.289062 7.421875 -3.875 L 11.59375 -3.875 C 11.425781 -3.101562 11.09375 -2.414062 10.59375 -1.8125 C 10.09375 -1.207031 9.460938 -0.726562 8.703125 -0.375 C 7.941406 -0.03125 7.101562 0.140625 6.1875 0.140625 C 5.070312 0.140625 4.082031 -0.09375 3.21875 -0.5625 C 2.363281 -1.03125 1.691406 -1.695312 1.203125 -2.5625 C 0.722656 -3.425781 0.484375 -4.445312 0.484375 -5.625 C 0.484375 -6.789062 0.722656 -7.800781 1.203125 -8.65625 C 1.679688 -9.519531 2.347656 -10.1875 3.203125 -10.65625 C 4.066406 -11.125 5.0625 -11.359375 6.1875 -11.359375 C 7.289062 -11.359375 8.269531 -11.128906 9.125 -10.671875 C 9.976562 -10.222656 10.644531 -9.570312 11.125 -8.71875 C 11.601562 -7.875 11.84375 -6.878906 11.84375 -5.734375 Z M 7.84375 -6.71875 C 7.84375 -7.195312 7.679688 -7.570312 7.359375 -7.84375 C 7.035156 -8.125 6.632812 -8.265625 6.15625 -8.265625 C 5.675781 -8.265625 5.28125 -8.132812 4.96875 -7.875 C 4.664062 -7.613281 4.46875 -7.226562 4.375 -6.71875 Z M 7.84375 -6.71875 "/></g></g></g><g fill="#000000" fill-opacity="1"><g transform="translate(123.351593, 229.104638)"><g/></g></g><g fill="#000000" fill-opacity="1"><g transform="translate(127.170086, 229.104638)"><g><path d="M 3.015625 0.15625 C 2.328125 0.15625 1.769531 -0.03125 1.34375 -0.40625 C 0.925781 -0.789062 0.71875 -1.273438 0.71875 -1.859375 C 0.71875 -2.441406 0.925781 -2.925781 1.34375 -3.3125 C 1.769531 -3.707031 2.328125 -3.90625 3.015625 -3.90625 C 3.703125 -3.90625 4.253906 -3.707031 4.671875 -3.3125 C 5.085938 -2.925781 5.296875 -2.441406 5.296875 -1.859375 C 5.296875 -1.285156 5.085938 -0.804688 4.671875 -0.421875 C 4.253906 -0.0351562 3.703125 0.15625 3.015625 0.15625 Z M 3.015625 0.15625 "/></g></g></g><g fill="#000000" fill-opacity="1"><g transform="translate(133.187709, 229.104638)"><g/></g></g><g fill="#000000" fill-opacity="1"><g transform="translate(137.006202, 229.104638)"><g><path d="M 0.640625 -7.078125 C 0.640625 -8.460938 0.925781 -9.695312 1.5 -10.78125 C 2.082031 -11.875 2.90625 -12.722656 3.96875 -13.328125 C 5.039062 -13.929688 6.269531 -14.234375 7.65625 -14.234375 C 9.414062 -14.234375 10.894531 -13.765625 12.09375 -12.828125 C 13.300781 -11.890625 14.078125 -10.613281 14.421875 -9 L 10.203125 -9 C 9.941406 -9.53125 9.585938 -9.9375 9.140625 -10.21875 C 8.703125 -10.5 8.1875 -10.640625 7.59375 -10.640625 C 6.6875 -10.640625 5.960938 -10.316406 5.421875 -9.671875 C 4.890625 -9.023438 4.625 -8.160156 4.625 -7.078125 C 4.625 -5.984375 4.890625 -5.113281 5.421875 -4.46875 C 5.960938 -3.820312 6.6875 -3.5 7.59375 -3.5 C 8.1875 -3.5 8.703125 -3.640625 9.140625 -3.921875 C 9.585938 -4.203125 9.941406 -4.609375 10.203125 -5.140625 L 14.421875 -5.140625 C 14.078125 -3.523438 13.300781 -2.25 12.09375 -1.3125 C 10.894531 -0.375 9.414062 0.09375 7.65625 0.09375 C 6.269531 0.09375 5.039062 -0.207031 3.96875 -0.8125 C 2.90625 -1.414062 2.082031 -2.257812 1.5 -3.34375 C 0.925781 -4.4375 0.640625 -5.679688 0.640625 -7.078125 Z M 0.640625 -7.078125 "/></g></g></g><g fill="#000000" fill-opacity="1"><g transform="translate(152.160227, 229.104638)"><g><path d="M 6.34375 0.140625 C 5.21875 0.140625 4.210938 -0.09375 3.328125 -0.5625 C 2.441406 -1.03125 1.742188 -1.695312 1.234375 -2.5625 C 0.734375 -3.425781 0.484375 -4.445312 0.484375 -5.625 C 0.484375 -6.78125 0.738281 -7.789062 1.25 -8.65625 C 1.757812 -9.519531 2.457031 -10.1875 3.34375 -10.65625 C 4.238281 -11.125 5.242188 -11.359375 6.359375 -11.359375 C 7.484375 -11.359375 8.488281 -11.125 9.375 -10.65625 C 10.257812 -10.1875 10.957031 -9.519531 11.46875 -8.65625 C 11.976562 -7.789062 12.234375 -6.78125 12.234375 -5.625 C 12.234375 -4.457031 11.976562 -3.4375 11.46875 -2.5625 C 10.957031 -1.695312 10.253906 -1.03125 9.359375 -0.5625 C 8.460938 -0.09375 7.457031 0.140625 6.34375 0.140625 Z M 6.34375 -3.265625 C 6.882812 -3.265625 7.335938 -3.46875 7.703125 -3.875 C 8.078125 -4.28125 8.265625 -4.863281 8.265625 -5.625 C 8.265625 -6.382812 8.078125 -6.960938 7.703125 -7.359375 C 7.335938 -7.753906 6.890625 -7.953125 6.359375 -7.953125 C 5.828125 -7.953125 5.378906 -7.753906 5.015625 -7.359375 C 4.660156 -6.960938 4.484375 -6.382812 4.484375 -5.625 C 4.484375 -4.84375 4.65625 -4.253906 5 -3.859375 C 5.34375 -3.460938 5.789062 -3.265625 6.34375 -3.265625 Z M 6.34375 -3.265625 "/></g></g></g><g fill="#000000" fill-opacity="1"><g transform="translate(164.875207, 229.104638)"><g><path d="M 8.453125 -11.3125 C 9.753906 -11.3125 10.785156 -10.878906 11.546875 -10.015625 C 12.304688 -9.160156 12.6875 -8.003906 12.6875 -6.546875 L 12.6875 0 L 8.765625 0 L 8.765625 -6.015625 C 8.765625 -6.660156 8.597656 -7.164062 8.265625 -7.53125 C 7.929688 -7.894531 7.484375 -8.078125 6.921875 -8.078125 C 6.335938 -8.078125 5.878906 -7.894531 5.546875 -7.53125 C 5.210938 -7.164062 5.046875 -6.660156 5.046875 -6.015625 L 5.046875 0 L 1.125 0 L 1.125 -11.21875 L 5.046875 -11.21875 L 5.046875 -9.625 C 5.390625 -10.125 5.851562 -10.53125 6.4375 -10.84375 C 7.019531 -11.15625 7.691406 -11.3125 8.453125 -11.3125 Z M 8.453125 -11.3125 "/></g></g></g><g fill="#000000" fill-opacity="1"><g transform="translate(178.589795, 229.104638)"><g><path d="M 8.453125 -11.3125 C 9.753906 -11.3125 10.785156 -10.878906 11.546875 -10.015625 C 12.304688 -9.160156 12.6875 -8.003906 12.6875 -6.546875 L 12.6875 0 L 8.765625 0 L 8.765625 -6.015625 C 8.765625 -6.660156 8.597656 -7.164062 8.265625 -7.53125 C 7.929688 -7.894531 7.484375 -8.078125 6.921875 -8.078125 C 6.335938 -8.078125 5.878906 -7.894531 5.546875 -7.53125 C 5.210938 -7.164062 5.046875 -6.660156 5.046875 -6.015625 L 5.046875 0 L 1.125 0 L 1.125 -11.21875 L 5.046875 -11.21875 L 5.046875 -9.625 C 5.390625 -10.125 5.851562 -10.53125 6.4375 -10.84375 C 7.019531 -11.15625 7.691406 -11.3125 8.453125 -11.3125 Z M 8.453125 -11.3125 "/></g></g></g><g fill="#000000" fill-opacity="1"><g transform="translate(192.304383, 229.104638)"><g><path d="M 11.84375 -5.734375 C 11.84375 -5.429688 11.820312 -5.125 11.78125 -4.8125 L 4.359375 -4.8125 C 4.398438 -4.207031 4.566406 -3.753906 4.859375 -3.453125 C 5.160156 -3.148438 5.546875 -3 6.015625 -3 C 6.671875 -3 7.140625 -3.289062 7.421875 -3.875 L 11.59375 -3.875 C 11.425781 -3.101562 11.09375 -2.414062 10.59375 -1.8125 C 10.09375 -1.207031 9.460938 -0.726562 8.703125 -0.375 C 7.941406 -0.03125 7.101562 0.140625 6.1875 0.140625 C 5.070312 0.140625 4.082031 -0.09375 3.21875 -0.5625 C 2.363281 -1.03125 1.691406 -1.695312 1.203125 -2.5625 C 0.722656 -3.425781 0.484375 -4.445312 0.484375 -5.625 C 0.484375 -6.789062 0.722656 -7.800781 1.203125 -8.65625 C 1.679688 -9.519531 2.347656 -10.1875 3.203125 -10.65625 C 4.066406 -11.125 5.0625 -11.359375 6.1875 -11.359375 C 7.289062 -11.359375 8.269531 -11.128906 9.125 -10.671875 C 9.976562 -10.222656 10.644531 -9.570312 11.125 -8.71875 C 11.601562 -7.875 11.84375 -6.878906 11.84375 -5.734375 Z M 7.84375 -6.71875 C 7.84375 -7.195312 7.679688 -7.570312 7.359375 -7.84375 C 7.035156 -8.125 6.632812 -8.265625 6.15625 -8.265625 C 5.675781 -8.265625 5.28125 -8.132812 4.96875 -7.875 C 4.664062 -7.613281 4.46875 -7.226562 4.375 -6.71875 Z M 7.84375 -6.71875 "/></g></g></g><g fill="#000000" fill-opacity="1"><g transform="translate(204.619529, 229.104638)"><g><path d="M 0.484375 -5.625 C 0.484375 -6.78125 0.722656 -7.789062 1.203125 -8.65625 C 1.679688 -9.519531 2.347656 -10.1875 3.203125 -10.65625 C 4.066406 -11.125 5.050781 -11.359375 6.15625 -11.359375 C 7.582031 -11.359375 8.78125 -10.96875 9.75 -10.1875 C 10.726562 -9.40625 11.359375 -8.316406 11.640625 -6.921875 L 7.484375 -6.921875 C 7.242188 -7.648438 6.773438 -8.015625 6.078125 -8.015625 C 5.585938 -8.015625 5.195312 -7.8125 4.90625 -7.40625 C 4.625 -7 4.484375 -6.40625 4.484375 -5.625 C 4.484375 -4.832031 4.625 -4.226562 4.90625 -3.8125 C 5.195312 -3.40625 5.585938 -3.203125 6.078125 -3.203125 C 6.785156 -3.203125 7.253906 -3.566406 7.484375 -4.296875 L 11.640625 -4.296875 C 11.359375 -2.910156 10.726562 -1.820312 9.75 -1.03125 C 8.78125 -0.25 7.582031 0.140625 6.15625 0.140625 C 5.050781 0.140625 4.066406 -0.09375 3.203125 -0.5625 C 2.347656 -1.03125 1.679688 -1.695312 1.203125 -2.5625 C 0.722656 -3.425781 0.484375 -4.445312 0.484375 -5.625 Z M 0.484375 -5.625 "/></g></g></g><g fill="#000000" fill-opacity="1"><g transform="translate(216.75474, 229.104638)"><g><path d="M 7.734375 -3.34375 L 7.734375 0 L 6.046875 0 C 3.171875 0 1.734375 -1.421875 1.734375 -4.265625 L 1.734375 -7.953125 L 0.359375 -7.953125 L 0.359375 -11.21875 L 1.734375 -11.21875 L 1.734375 -13.9375 L 5.6875 -13.9375 L 5.6875 -11.21875 L 7.71875 -11.21875 L 7.71875 -7.953125 L 5.6875 -7.953125 L 5.6875 -4.203125 C 5.6875 -3.890625 5.753906 -3.664062 5.890625 -3.53125 C 6.023438 -3.40625 6.257812 -3.34375 6.59375 -3.34375 Z M 7.734375 -3.34375 "/></g></g></g><g fill="#000000" fill-opacity="1"><g transform="translate(225.171423, 229.104638)"><g/></g></g><g fill="#000000" fill-opacity="1"><g transform="translate(228.989916, 229.104638)"><g><path d="M 3.015625 0.15625 C 2.328125 0.15625 1.769531 -0.03125 1.34375 -0.40625 C 0.925781 -0.789062 0.71875 -1.273438 0.71875 -1.859375 C 0.71875 -2.441406 0.925781 -2.925781 1.34375 -3.3125 C 1.769531 -3.707031 2.328125 -3.90625 3.015625 -3.90625 C 3.703125 -3.90625 4.253906 -3.707031 4.671875 -3.3125 C 5.085938 -2.925781 5.296875 -2.441406 5.296875 -1.859375 C 5.296875 -1.285156 5.085938 -0.804688 4.671875 -0.421875 C 4.253906 -0.0351562 3.703125 0.15625 3.015625 0.15625 Z M 3.015625 0.15625 "/></g></g></g><g fill="#000000" fill-opacity="1"><g transform="translate(235.007528, 229.104638)"><g/></g></g><g fill="#000000" fill-opacity="1"><g transform="translate(238.826009, 229.104638)"><g><path d="M 5.046875 -10.953125 L 5.046875 -8.65625 L 9.546875 -8.65625 L 9.546875 -5.6875 L 5.046875 -5.6875 L 5.046875 -3.140625 L 10.140625 -3.140625 L 10.140625 0 L 1.125 0 L 1.125 -14.09375 L 10.140625 -14.09375 L 10.140625 -10.953125 Z M 5.046875 -10.953125 "/></g></g></g><g fill="#000000" fill-opacity="1"><g transform="translate(249.781689, 229.104638)"><g><path d="M 15.78125 -11.3125 C 17.195312 -11.3125 18.304688 -10.882812 19.109375 -10.03125 C 19.910156 -9.1875 20.3125 -8.023438 20.3125 -6.546875 L 20.3125 0 L 16.40625 0 L 16.40625 -6.015625 C 16.40625 -6.617188 16.238281 -7.085938 15.90625 -7.421875 C 15.570312 -7.753906 15.117188 -7.921875 14.546875 -7.921875 C 13.972656 -7.921875 13.519531 -7.753906 13.1875 -7.421875 C 12.851562 -7.085938 12.6875 -6.617188 12.6875 -6.015625 L 12.6875 0 L 8.765625 0 L 8.765625 -6.015625 C 8.765625 -6.617188 8.597656 -7.085938 8.265625 -7.421875 C 7.941406 -7.753906 7.492188 -7.921875 6.921875 -7.921875 C 6.335938 -7.921875 5.878906 -7.753906 5.546875 -7.421875 C 5.210938 -7.085938 5.046875 -6.617188 5.046875 -6.015625 L 5.046875 0 L 1.125 0 L 1.125 -11.21875 L 5.046875 -11.21875 L 5.046875 -9.734375 C 5.390625 -10.210938 5.835938 -10.59375 6.390625 -10.875 C 6.941406 -11.164062 7.578125 -11.3125 8.296875 -11.3125 C 9.128906 -11.3125 9.867188 -11.128906 10.515625 -10.765625 C 11.160156 -10.410156 11.671875 -9.910156 12.046875 -9.265625 C 12.441406 -9.878906 12.960938 -10.375 13.609375 -10.75 C 14.265625 -11.125 14.988281 -11.3125 15.78125 -11.3125 Z M 15.78125 -11.3125 "/></g></g></g><g fill="#000000" fill-opacity="1"><g transform="translate(271.113269, 229.104638)"><g><path d="M 5.046875 -9.65625 C 5.347656 -10.175781 5.78125 -10.585938 6.34375 -10.890625 C 6.90625 -11.203125 7.5625 -11.359375 8.3125 -11.359375 C 9.207031 -11.359375 10.019531 -11.125 10.75 -10.65625 C 11.476562 -10.1875 12.050781 -9.519531 12.46875 -8.65625 C 12.882812 -7.789062 13.09375 -6.78125 13.09375 -5.625 C 13.09375 -4.457031 12.882812 -3.4375 12.46875 -2.5625 C 12.050781 -1.695312 11.476562 -1.03125 10.75 -0.5625 C 10.019531 -0.09375 9.207031 0.140625 8.3125 0.140625 C 7.5625 0.140625 6.90625 -0.0078125 6.34375 -0.3125 C 5.789062 -0.625 5.359375 -1.039062 5.046875 -1.5625 L 5.046875 5.359375 L 1.125 5.359375 L 1.125 -11.21875 L 5.046875 -11.21875 Z M 9.125 -5.625 C 9.125 -6.351562 8.925781 -6.921875 8.53125 -7.328125 C 8.132812 -7.734375 7.648438 -7.9375 7.078125 -7.9375 C 6.503906 -7.9375 6.019531 -7.726562 5.625 -7.3125 C 5.238281 -6.90625 5.046875 -6.34375 5.046875 -5.625 C 5.046875 -4.882812 5.238281 -4.304688 5.625 -3.890625 C 6.019531 -3.484375 6.503906 -3.28125 7.078125 -3.28125 C 7.648438 -3.28125 8.132812 -3.488281 8.53125 -3.90625 C 8.925781 -4.332031 9.125 -4.90625 9.125 -5.625 Z M 9.125 -5.625 "/></g></g></g><g fill="#000000" fill-opacity="1"><g transform="translate(284.70791, 229.104638)"><g><path d="M 6.34375 0.140625 C 5.21875 0.140625 4.210938 -0.09375 3.328125 -0.5625 C 2.441406 -1.03125 1.742188 -1.695312 1.234375 -2.5625 C 0.734375 -3.425781 0.484375 -4.445312 0.484375 -5.625 C 0.484375 -6.78125 0.738281 -7.789062 1.25 -8.65625 C 1.757812 -9.519531 2.457031 -10.1875 3.34375 -10.65625 C 4.238281 -11.125 5.242188 -11.359375 6.359375 -11.359375 C 7.484375 -11.359375 8.488281 -11.125 9.375 -10.65625 C 10.257812 -10.1875 10.957031 -9.519531 11.46875 -8.65625 C 11.976562 -7.789062 12.234375 -6.78125 12.234375 -5.625 C 12.234375 -4.457031 11.976562 -3.4375 11.46875 -2.5625 C 10.957031 -1.695312 10.253906 -1.03125 9.359375 -0.5625 C 8.460938 -0.09375 7.457031 0.140625 6.34375 0.140625 Z M 6.34375 -3.265625 C 6.882812 -3.265625 7.335938 -3.46875 7.703125 -3.875 C 8.078125 -4.28125 8.265625 -4.863281 8.265625 -5.625 C 8.265625 -6.382812 8.078125 -6.960938 7.703125 -7.359375 C 7.335938 -7.753906 6.890625 -7.953125 6.359375 -7.953125 C 5.828125 -7.953125 5.378906 -7.753906 5.015625 -7.359375 C 4.660156 -6.960938 4.484375 -6.382812 4.484375 -5.625 C 4.484375 -4.84375 4.65625 -4.253906 5 -3.859375 C 5.34375 -3.460938 5.789062 -3.265625 6.34375 -3.265625 Z M 6.34375 -3.265625 "/></g></g></g><g fill="#000000" fill-opacity="1"><g transform="translate(297.42289, 229.104638)"><g><path d="M 17.703125 -11.21875 L 14.84375 0 L 10.4375 0 L 8.875 -6.796875 L 7.265625 0 L 2.875 0 L 0.046875 -11.21875 L 3.9375 -11.21875 L 5.203125 -3.78125 L 6.859375 -11.21875 L 11.0625 -11.21875 L 12.78125 -3.765625 L 14.015625 -11.21875 Z M 17.703125 -11.21875 "/></g></g></g><g fill="#000000" fill-opacity="1"><g transform="translate(315.115913, 229.104638)"><g><path d="M 11.84375 -5.734375 C 11.84375 -5.429688 11.820312 -5.125 11.78125 -4.8125 L 4.359375 -4.8125 C 4.398438 -4.207031 4.566406 -3.753906 4.859375 -3.453125 C 5.160156 -3.148438 5.546875 -3 6.015625 -3 C 6.671875 -3 7.140625 -3.289062 7.421875 -3.875 L 11.59375 -3.875 C 11.425781 -3.101562 11.09375 -2.414062 10.59375 -1.8125 C 10.09375 -1.207031 9.460938 -0.726562 8.703125 -0.375 C 7.941406 -0.03125 7.101562 0.140625 6.1875 0.140625 C 5.070312 0.140625 4.082031 -0.09375 3.21875 -0.5625 C 2.363281 -1.03125 1.691406 -1.695312 1.203125 -2.5625 C 0.722656 -3.425781 0.484375 -4.445312 0.484375 -5.625 C 0.484375 -6.789062 0.722656 -7.800781 1.203125 -8.65625 C 1.679688 -9.519531 2.347656 -10.1875 3.203125 -10.65625 C 4.066406 -11.125 5.0625 -11.359375 6.1875 -11.359375 C 7.289062 -11.359375 8.269531 -11.128906 9.125 -10.671875 C 9.976562 -10.222656 10.644531 -9.570312 11.125 -8.71875 C 11.601562 -7.875 11.84375 -6.878906 11.84375 -5.734375 Z M 7.84375 -6.71875 C 7.84375 -7.195312 7.679688 -7.570312 7.359375 -7.84375 C 7.035156 -8.125 6.632812 -8.265625 6.15625 -8.265625 C 5.675781 -8.265625 5.28125 -8.132812 4.96875 -7.875 C 4.664062 -7.613281 4.46875 -7.226562 4.375 -6.71875 Z M 7.84375 -6.71875 "/></g></g></g><g fill="#000000" fill-opacity="1"><g transform="translate(327.431059, 229.104638)"><g><path d="M 5.046875 -9.234375 C 5.484375 -9.878906 6.015625 -10.382812 6.640625 -10.75 C 7.265625 -11.125 7.9375 -11.3125 8.65625 -11.3125 L 8.65625 -7.140625 L 7.5625 -7.140625 C 6.707031 -7.140625 6.070312 -6.972656 5.65625 -6.640625 C 5.25 -6.304688 5.046875 -5.726562 5.046875 -4.90625 L 5.046875 0 L 1.125 0 L 1.125 -11.21875 L 5.046875 -11.21875 Z M 5.046875 -9.234375 "/></g></g></g></svg>